<svg width="100%" height="100%" id="svg" viewBox="0 0 1440 700"
	xmlns="http://www.w3.org/2000/svg" class="transition duration-300 ease-in-out delay-150">
	<path d="M 0,700 C 0,700 0,140 0,140 C 137.7333333333333,142 275.4666666666666,144 437,143 C 598.5333333333334,142 783.8666666666668,138.00000000000003 955,137 C 1126.1333333333332,135.99999999999997 1283.0666666666666,138 1440,140 C 1440,140 1440,700 1440,700 Z" stroke="none" stroke-width="0" fill="#283d3b44" class="transition-all duration-300 ease-in-out delay-150 path-0" transform="rotate(-180 720 350)"></path>
	<path d="M 0,700 C 0,700 0,280 0,280 C 186.53333333333336,253.60000000000002 373.0666666666667,227.20000000000002 539,229 C 704.9333333333333,230.79999999999998 850.2666666666667,260.8 997,274 C 1143.7333333333333,287.2 1291.8666666666668,283.6 1440,280 C 1440,280 1440,700 1440,700 Z" stroke="none" stroke-width="0" fill="#283d3b66" class="transition-all duration-300 ease-in-out delay-150 path-1" transform="rotate(-180 720 350)"></path>
	<path d="M 0,700 C 0,700 0,420 0,420 C 200.2666666666667,436 400.5333333333334,452 569,437 C 737.4666666666666,422 874.1333333333332,375.99999999999994 1014,368 C 1153.8666666666668,360.00000000000006 1296.9333333333334,390 1440,420 C 1440,420 1440,700 1440,700 Z" stroke="none" stroke-width="0" fill="#283d3b88" class="transition-all duration-300 ease-in-out delay-150 path-2" transform="rotate(-180 720 350)"></path>
	<path d="M 0,700 C 0,700 0,560 0,560 C 122.66666666666663,548.5333333333333 245.33333333333326,537.0666666666666 422,543 C 598.6666666666667,548.9333333333334 829.3333333333335,572.2666666666668 1008,578 C 1186.6666666666665,583.7333333333332 1313.3333333333333,571.8666666666666 1440,560 C 1440,560 1440,700 1440,700 Z" stroke="none" stroke-width="0" fill="#283d3bff" class="transition-all duration-300 ease-in-out delay-150 path-3" transform="rotate(-180 720 350)"></path>
</svg>