<svg width="100%" height="100%" id="svg" viewBox="0 0 1440 700" xmlns="http://www.w3.org/2000/svg" class="transition duration-300 ease-in-out delay-150">
	<defs>
		<linearGradient id="gradient" x1="21%" y1="91%" x2="79%" y2="9%">
			<stop offset="5%" stop-color="#8ed1fc44">
			</stop>
			<stop offset="95%" stop-color="#8ed1fc44">
			</stop>
		</linearGradient>
	</defs>
	<path d="M 0,700 C 0,700 0,140 0,140 C 62.56459330143542,145.1866028708134 125.12918660287085,150.3732057416268 237,154 C 348.87081339712915,157.6267942583732 510.0478468899521,159.6937799043062 608,151 C 705.9521531100479,142.3062200956938 740.6794258373207,122.8516746411483 831,121 C 921.3205741626793,119.1483253588517 1067.2344497607658,134.89952153110048 1178,141 C 1288.7655502392342,147.10047846889952 1364.3827751196172,143.55023923444975 1440,140 C 1440,140 1440,700 1440,700 Z" stroke="none" stroke-width="0" fill="url(#gradient)" class="transition-all duration-300 ease-in-out delay-150 path-0" transform="rotate(-180 720 350)">
	</path>
	<defs>
		<linearGradient id="gradient" x1="21%" y1="91%" x2="79%" y2="9%">
			<stop offset="5%" stop-color="#8ed1fc66">
			</stop>
			<stop offset="95%" stop-color="#8ed1fc66">
			</stop>
		</linearGradient>
	</defs>
	<path d="M 0,700 C 0,700 0,280 0,280 C 116.56459330143542,271.27272727272725 233.12918660287085,262.5454545454545 319,259 C 404.87081339712915,255.45454545454547 460.0478468899521,257.0909090909091 556,273 C 651.9521531100479,288.9090909090909 788.6794258373207,319.0909090909091 889,307 C 989.3205741626793,294.9090909090909 1053.2344497607655,240.54545454545453 1139,229 C 1224.7655502392345,217.45454545454547 1332.3827751196172,248.72727272727275 1440,280 C 1440,280 1440,700 1440,700 Z" stroke="none" stroke-width="0" fill="url(#gradient)" class="transition-all duration-300 ease-in-out delay-150 path-1" transform="rotate(-180 720 350)">
	</path>
	<defs>
		<linearGradient id="gradient" x1="21%" y1="91%" x2="79%" y2="9%">
			<stop offset="5%" stop-color="#8ed1fc88">
			</stop>
			<stop offset="95%" stop-color="#8ed1fc88">
			</stop>
		</linearGradient>
	</defs>
	<path d="M 0,700 C 0,700 0,420 0,420 C 89.3205741626794,444.0861244019139 178.6411483253588,468.17224880382776 279,453 C 379.3588516746412,437.82775119617224 490.755980861244,383.39712918660285 579,379 C 667.244019138756,374.60287081339715 732.3349282296653,420.2392344497608 836,442 C 939.6650717703347,463.7607655502392 1081.9043062200956,461.64593301435406 1189,454 C 1296.0956937799044,446.35406698564594 1368.0478468899523,433.17703349282294 1440,420 C 1440,420 1440,700 1440,700 Z" stroke="none" stroke-width="0" fill="url(#gradient)" class="transition-all duration-300 ease-in-out delay-150 path-2" transform="rotate(-180 720 350)">
	</path>
	<defs>
		<linearGradient id="gradient" x1="21%" y1="91%" x2="79%" y2="9%">
			<stop offset="5%" stop-color="#8ed1fcff">
			</stop>
			<stop offset="95%" stop-color="#8ed1fcff">
			</stop>
		</linearGradient>
	</defs>
	<path d="M 0,700 C 0,700 0,560 0,560 C 123.57894736842104,536.2775119617224 247.15789473684208,512.555023923445 341,518 C 434.8421052631579,523.444976076555 498.9473684210527,558.0574162679426 596,566 C 693.0526315789473,573.9425837320574 823.0526315789473,555.2153110047847 905,560 C 986.9473684210527,564.7846889952153 1020.8421052631579,593.0813397129186 1102,597 C 1183.157894736842,600.9186602870814 1311.578947368421,580.4593301435407 1440,560 C 1440,560 1440,700 1440,700 Z" stroke="none" stroke-width="0" fill="url(#gradient)" class="transition-all duration-300 ease-in-out delay-150 path-3" transform="rotate(-180 720 350)">
	</path>
</svg>
